<mxfile host="app.diagrams.net" modified="2021-12-01T13:05:34.486Z" agent="5.0 (Windows NT 10.0; Win64; x64) AppleWebKit/537.36 (KHTML, like Gecko) Chrome/93.0.4577.63 Safari/537.36" etag="v0qBaCGOdpZV-01yVnvq" version="15.8.7" type="github">
  <diagram id="Bdpf5u622qAh8qZWv-XS" name="Page-1">
    <mxGraphModel dx="1038" dy="588" grid="1" gridSize="10" guides="1" tooltips="1" connect="1" arrows="1" fold="1" page="1" pageScale="1" pageWidth="827" pageHeight="1169" math="0" shadow="0">
      <root>
        <mxCell id="0" />
        <mxCell id="1" parent="0" />
        <mxCell id="qImx0FthztkAbKvZ3IyT-3" style="edgeStyle=orthogonalEdgeStyle;rounded=0;orthogonalLoop=1;jettySize=auto;html=1;exitX=1;exitY=0.5;exitDx=0;exitDy=0;entryX=0;entryY=0.5;entryDx=0;entryDy=0;fontSize=18;" parent="1" source="qImx0FthztkAbKvZ3IyT-1" target="qImx0FthztkAbKvZ3IyT-2" edge="1">
          <mxGeometry relative="1" as="geometry" />
        </mxCell>
        <mxCell id="qImx0FthztkAbKvZ3IyT-15" style="edgeStyle=orthogonalEdgeStyle;rounded=0;orthogonalLoop=1;jettySize=auto;html=1;entryX=0;entryY=0.5;entryDx=0;entryDy=0;fontSize=18;" parent="1" source="qImx0FthztkAbKvZ3IyT-1" edge="1">
          <mxGeometry relative="1" as="geometry">
            <mxPoint x="410" y="150" as="targetPoint" />
            <Array as="points">
              <mxPoint x="80" y="150" />
            </Array>
          </mxGeometry>
        </mxCell>
        <mxCell id="qImx0FthztkAbKvZ3IyT-1" value="&lt;font style=&quot;font-size: 18px&quot;&gt;&lt;b&gt;登录表单&lt;/b&gt;&lt;/font&gt;" style="rounded=1;whiteSpace=wrap;html=1;strokeWidth=2;fillWeight=4;hachureGap=8;hachureAngle=45;fillColor=#1ba1e2;sketch=1;" parent="1" vertex="1">
          <mxGeometry x="20" y="270" width="120" height="60" as="geometry" />
        </mxCell>
        <mxCell id="qImx0FthztkAbKvZ3IyT-7" style="edgeStyle=orthogonalEdgeStyle;rounded=0;orthogonalLoop=1;jettySize=auto;html=1;fontSize=18;entryX=0.5;entryY=0;entryDx=0;entryDy=0;" parent="1" source="qImx0FthztkAbKvZ3IyT-2" target="qImx0FthztkAbKvZ3IyT-5" edge="1">
          <mxGeometry relative="1" as="geometry">
            <mxPoint x="470" y="380" as="targetPoint" />
          </mxGeometry>
        </mxCell>
        <mxCell id="qImx0FthztkAbKvZ3IyT-10" style="edgeStyle=orthogonalEdgeStyle;rounded=0;orthogonalLoop=1;jettySize=auto;html=1;exitX=1;exitY=0.5;exitDx=0;exitDy=0;fontSize=18;" parent="1" source="qImx0FthztkAbKvZ3IyT-2" target="qImx0FthztkAbKvZ3IyT-9" edge="1">
          <mxGeometry relative="1" as="geometry" />
        </mxCell>
        <mxCell id="qImx0FthztkAbKvZ3IyT-2" value="&lt;b&gt;后台验证账号密码&lt;/b&gt;" style="rounded=1;whiteSpace=wrap;html=1;strokeWidth=2;fillWeight=4;hachureGap=8;hachureAngle=45;fillColor=#1ba1e2;sketch=1;fontSize=18;" parent="1" vertex="1">
          <mxGeometry x="410" y="270" width="120" height="60" as="geometry" />
        </mxCell>
        <mxCell id="qImx0FthztkAbKvZ3IyT-4" value="提交到 loginServlet 进行校验" style="text;html=1;align=center;verticalAlign=middle;resizable=0;points=[];autosize=1;strokeColor=none;fillColor=none;fontSize=18;" parent="1" vertex="1">
          <mxGeometry x="145" y="270" width="250" height="30" as="geometry" />
        </mxCell>
        <mxCell id="qImx0FthztkAbKvZ3IyT-5" value="&lt;b&gt;进入后台管理页面&lt;/b&gt;" style="rounded=1;whiteSpace=wrap;html=1;strokeWidth=2;fillWeight=4;hachureGap=8;hachureAngle=45;fillColor=#66FF66;sketch=1;fontSize=18;" parent="1" vertex="1">
          <mxGeometry x="410" y="410" width="120" height="60" as="geometry" />
        </mxCell>
        <mxCell id="qImx0FthztkAbKvZ3IyT-8" value="通过" style="text;html=1;align=center;verticalAlign=middle;resizable=0;points=[];autosize=1;strokeColor=none;fillColor=none;fontSize=18;" parent="1" vertex="1">
          <mxGeometry x="470" y="355" width="50" height="30" as="geometry" />
        </mxCell>
        <mxCell id="qImx0FthztkAbKvZ3IyT-9" value="&lt;b&gt;返回登录页面&lt;/b&gt;" style="rounded=1;whiteSpace=wrap;html=1;strokeWidth=2;fillWeight=4;hachureGap=8;hachureAngle=45;fillColor=#FF9999;sketch=1;fontSize=18;" parent="1" vertex="1">
          <mxGeometry x="670" y="270" width="120" height="60" as="geometry" />
        </mxCell>
        <mxCell id="qImx0FthztkAbKvZ3IyT-11" value="不通过" style="text;html=1;align=center;verticalAlign=middle;resizable=0;points=[];autosize=1;strokeColor=none;fillColor=none;fontSize=18;" parent="1" vertex="1">
          <mxGeometry x="560" y="270" width="70" height="30" as="geometry" />
        </mxCell>
        <mxCell id="qImx0FthztkAbKvZ3IyT-16" value="未验证账号密码直接进入后台管理页面" style="text;html=1;align=center;verticalAlign=middle;resizable=0;points=[];autosize=1;strokeColor=none;fillColor=none;fontSize=18;" parent="1" vertex="1">
          <mxGeometry x="75" y="120" width="320" height="30" as="geometry" />
        </mxCell>
        <mxCell id="qImx0FthztkAbKvZ3IyT-17" value="&lt;b&gt;返回登录页面&lt;/b&gt;" style="rounded=1;whiteSpace=wrap;html=1;strokeWidth=2;fillWeight=4;hachureGap=8;hachureAngle=45;fillColor=#FF9999;sketch=1;fontSize=18;" parent="1" vertex="1">
          <mxGeometry x="410" y="120" width="120" height="60" as="geometry" />
        </mxCell>
        <mxCell id="qImx0FthztkAbKvZ3IyT-20" style="edgeStyle=orthogonalEdgeStyle;rounded=0;orthogonalLoop=1;jettySize=auto;html=1;exitX=1;exitY=0.5;exitDx=0;exitDy=0;fontSize=18;" parent="1" source="qImx0FthztkAbKvZ3IyT-18" target="qImx0FthztkAbKvZ3IyT-19" edge="1">
          <mxGeometry relative="1" as="geometry" />
        </mxCell>
        <mxCell id="qImx0FthztkAbKvZ3IyT-18" value="&lt;b&gt;删除按钮&lt;/b&gt;" style="rounded=1;whiteSpace=wrap;html=1;strokeWidth=2;fillWeight=4;hachureGap=8;hachureAngle=45;fillColor=#1ba1e2;sketch=1;fontSize=18;" parent="1" vertex="1">
          <mxGeometry x="95" y="570" width="120" height="60" as="geometry" />
        </mxCell>
        <mxCell id="qImx0FthztkAbKvZ3IyT-34" style="edgeStyle=orthogonalEdgeStyle;rounded=0;orthogonalLoop=1;jettySize=auto;html=1;exitX=0.5;exitY=1;exitDx=0;exitDy=0;fontSize=18;" parent="1" source="qImx0FthztkAbKvZ3IyT-19" target="qImx0FthztkAbKvZ3IyT-33" edge="1">
          <mxGeometry relative="1" as="geometry" />
        </mxCell>
        <mxCell id="qImx0FthztkAbKvZ3IyT-19" value="&lt;b&gt;进行软删除&lt;/b&gt;" style="rounded=1;whiteSpace=wrap;html=1;strokeWidth=2;fillWeight=4;hachureGap=8;hachureAngle=45;fillColor=#1ba1e2;sketch=1;fontSize=18;" parent="1" vertex="1">
          <mxGeometry x="440" y="570" width="120" height="60" as="geometry" />
        </mxCell>
        <mxCell id="qImx0FthztkAbKvZ3IyT-21" value="获取信息编号&lt;br&gt;并提交到 Servlet&amp;nbsp;" style="text;html=1;align=center;verticalAlign=middle;resizable=0;points=[];autosize=1;strokeColor=none;fillColor=none;fontSize=18;" parent="1" vertex="1">
          <mxGeometry x="255" y="550" width="150" height="50" as="geometry" />
        </mxCell>
        <mxCell id="qImx0FthztkAbKvZ3IyT-43" style="edgeStyle=orthogonalEdgeStyle;rounded=0;orthogonalLoop=1;jettySize=auto;html=1;exitX=0;exitY=0.5;exitDx=0;exitDy=0;entryX=1;entryY=0.5;entryDx=0;entryDy=0;fontSize=18;" parent="1" source="qImx0FthztkAbKvZ3IyT-22" target="qImx0FthztkAbKvZ3IyT-27" edge="1">
          <mxGeometry relative="1" as="geometry" />
        </mxCell>
        <mxCell id="qImx0FthztkAbKvZ3IyT-22" value="&lt;b&gt;&lt;span&gt;更新 is_deleted&lt;br&gt;&amp;nbsp;字段为1&lt;/span&gt;段&lt;/b&gt;" style="rounded=1;whiteSpace=wrap;html=1;strokeWidth=2;fillWeight=4;hachureGap=8;hachureAngle=45;fillColor=#FFFF33;sketch=1;fontSize=18;" parent="1" vertex="1">
          <mxGeometry x="440" y="860" width="120" height="80" as="geometry" />
        </mxCell>
        <mxCell id="qImx0FthztkAbKvZ3IyT-27" value="&lt;b&gt;删除成功&lt;/b&gt;" style="rounded=1;whiteSpace=wrap;html=1;strokeWidth=2;fillWeight=4;hachureGap=8;hachureAngle=45;fillColor=#66FF66;sketch=1;fontSize=18;" parent="1" vertex="1">
          <mxGeometry x="95" y="870" width="120" height="60" as="geometry" />
        </mxCell>
        <mxCell id="qImx0FthztkAbKvZ3IyT-36" style="edgeStyle=orthogonalEdgeStyle;rounded=0;orthogonalLoop=1;jettySize=auto;html=1;exitX=0;exitY=0.5;exitDx=0;exitDy=0;entryX=1;entryY=0.5;entryDx=0;entryDy=0;fontSize=18;" parent="1" source="qImx0FthztkAbKvZ3IyT-33" target="qImx0FthztkAbKvZ3IyT-35" edge="1">
          <mxGeometry relative="1" as="geometry" />
        </mxCell>
        <mxCell id="qImx0FthztkAbKvZ3IyT-41" style="edgeStyle=orthogonalEdgeStyle;rounded=0;orthogonalLoop=1;jettySize=auto;html=1;exitX=0.5;exitY=1;exitDx=0;exitDy=0;entryX=0.5;entryY=0;entryDx=0;entryDy=0;fontSize=18;" parent="1" source="qImx0FthztkAbKvZ3IyT-33" target="qImx0FthztkAbKvZ3IyT-22" edge="1">
          <mxGeometry relative="1" as="geometry" />
        </mxCell>
        <mxCell id="qImx0FthztkAbKvZ3IyT-33" value="&lt;b&gt;是否为&lt;br&gt;最后一条数据&lt;/b&gt;" style="rounded=1;whiteSpace=wrap;html=1;strokeWidth=2;fillWeight=4;hachureGap=8;hachureAngle=45;fillColor=#FFCC99;sketch=1;fontSize=18;" parent="1" vertex="1">
          <mxGeometry x="440" y="710" width="120" height="60" as="geometry" />
        </mxCell>
        <mxCell id="qImx0FthztkAbKvZ3IyT-35" value="&lt;b&gt;不允许删除&lt;/b&gt;" style="rounded=1;whiteSpace=wrap;html=1;strokeWidth=2;fillWeight=4;hachureGap=8;hachureAngle=45;fillColor=#FFCCE6;sketch=1;fontSize=18;" parent="1" vertex="1">
          <mxGeometry x="95" y="710" width="120" height="60" as="geometry" />
        </mxCell>
        <mxCell id="qImx0FthztkAbKvZ3IyT-37" value="是" style="text;html=1;align=center;verticalAlign=middle;resizable=0;points=[];autosize=1;strokeColor=none;fillColor=none;fontSize=18;" parent="1" vertex="1">
          <mxGeometry x="315" y="710" width="30" height="30" as="geometry" />
        </mxCell>
        <mxCell id="qImx0FthztkAbKvZ3IyT-39" value="否" style="text;html=1;align=center;verticalAlign=middle;resizable=0;points=[];autosize=1;strokeColor=none;fillColor=none;fontSize=18;" parent="1" vertex="1">
          <mxGeometry x="465" y="800" width="30" height="30" as="geometry" />
        </mxCell>
        <mxCell id="qImx0FthztkAbKvZ3IyT-44" value="返回状态 1" style="text;html=1;align=center;verticalAlign=middle;resizable=0;points=[];autosize=1;strokeColor=none;fillColor=none;fontSize=18;" parent="1" vertex="1">
          <mxGeometry x="280" y="870" width="100" height="30" as="geometry" />
        </mxCell>
        <mxCell id="qImx0FthztkAbKvZ3IyT-47" value="" style="edgeStyle=orthogonalEdgeStyle;rounded=0;orthogonalLoop=1;jettySize=auto;html=1;fontSize=18;" parent="1" source="qImx0FthztkAbKvZ3IyT-45" target="qImx0FthztkAbKvZ3IyT-46" edge="1">
          <mxGeometry relative="1" as="geometry" />
        </mxCell>
        <mxCell id="qImx0FthztkAbKvZ3IyT-45" value="&lt;b&gt;回收站按钮&lt;/b&gt;" style="rounded=1;whiteSpace=wrap;html=1;strokeWidth=2;fillWeight=4;hachureGap=8;hachureAngle=45;fillColor=#1ba1e2;sketch=1;fontSize=18;" parent="1" vertex="1">
          <mxGeometry x="171" y="1280" width="120" height="60" as="geometry" />
        </mxCell>
        <mxCell id="qImx0FthztkAbKvZ3IyT-49" style="edgeStyle=orthogonalEdgeStyle;rounded=0;orthogonalLoop=1;jettySize=auto;html=1;exitX=0.5;exitY=1;exitDx=0;exitDy=0;fontSize=18;entryX=0.5;entryY=0;entryDx=0;entryDy=0;" parent="1" source="qImx0FthztkAbKvZ3IyT-46" target="qImx0FthztkAbKvZ3IyT-50" edge="1">
          <mxGeometry relative="1" as="geometry">
            <mxPoint x="546" y="1420" as="targetPoint" />
          </mxGeometry>
        </mxCell>
        <mxCell id="qImx0FthztkAbKvZ3IyT-46" value="显示&lt;br&gt;被删除的数据" style="whiteSpace=wrap;html=1;rounded=1;fontSize=18;strokeWidth=2;fillColor=#FFFF99;sketch=1;fillWeight=4;hachureGap=8;hachureAngle=45;fontStyle=1" parent="1" vertex="1">
          <mxGeometry x="536" y="1280" width="120" height="60" as="geometry" />
        </mxCell>
        <mxCell id="qImx0FthztkAbKvZ3IyT-48" value="&amp;nbsp; &amp;nbsp;提交到 Servlet ，&lt;br&gt;获取被删除的数据" style="text;html=1;align=center;verticalAlign=middle;resizable=0;points=[];autosize=1;strokeColor=none;fillColor=none;fontSize=18;" parent="1" vertex="1">
          <mxGeometry x="331" y="1260" width="170" height="50" as="geometry" />
        </mxCell>
        <mxCell id="qImx0FthztkAbKvZ3IyT-53" style="edgeStyle=orthogonalEdgeStyle;rounded=0;orthogonalLoop=1;jettySize=auto;html=1;exitX=0;exitY=0.5;exitDx=0;exitDy=0;entryX=1;entryY=0.5;entryDx=0;entryDy=0;fontSize=18;" parent="1" source="qImx0FthztkAbKvZ3IyT-50" target="qImx0FthztkAbKvZ3IyT-52" edge="1">
          <mxGeometry relative="1" as="geometry" />
        </mxCell>
        <mxCell id="qImx0FthztkAbKvZ3IyT-50" value="恢复按钮" style="rounded=1;whiteSpace=wrap;html=1;strokeWidth=2;fillWeight=4;hachureGap=8;hachureAngle=45;fillColor=#FFCC99;sketch=1;fontSize=18;fontStyle=1" parent="1" vertex="1">
          <mxGeometry x="536" y="1430" width="120" height="60" as="geometry" />
        </mxCell>
        <mxCell id="qImx0FthztkAbKvZ3IyT-56" value="" style="edgeStyle=orthogonalEdgeStyle;rounded=0;orthogonalLoop=1;jettySize=auto;html=1;fontSize=18;" parent="1" source="qImx0FthztkAbKvZ3IyT-52" target="qImx0FthztkAbKvZ3IyT-55" edge="1">
          <mxGeometry relative="1" as="geometry" />
        </mxCell>
        <mxCell id="qImx0FthztkAbKvZ3IyT-52" value="返回状态 1" style="rounded=1;whiteSpace=wrap;html=1;strokeWidth=2;fillWeight=4;hachureGap=8;hachureAngle=45;fillColor=#D5E8D4;sketch=1;fontSize=18;fontStyle=1" parent="1" vertex="1">
          <mxGeometry x="171" y="1430" width="120" height="60" as="geometry" />
        </mxCell>
        <mxCell id="qImx0FthztkAbKvZ3IyT-54" value="&amp;nbsp; &amp;nbsp;提交到 Servlet ，&lt;br&gt;更新 is_deleted 字段为 0" style="text;html=1;align=center;verticalAlign=middle;resizable=0;points=[];autosize=1;strokeColor=none;fillColor=none;fontSize=18;" parent="1" vertex="1">
          <mxGeometry x="306" y="1410" width="210" height="50" as="geometry" />
        </mxCell>
        <mxCell id="qImx0FthztkAbKvZ3IyT-58" value="" style="edgeStyle=orthogonalEdgeStyle;rounded=0;orthogonalLoop=1;jettySize=auto;html=1;fontSize=18;" parent="1" source="qImx0FthztkAbKvZ3IyT-55" target="qImx0FthztkAbKvZ3IyT-57" edge="1">
          <mxGeometry relative="1" as="geometry" />
        </mxCell>
        <mxCell id="qImx0FthztkAbKvZ3IyT-55" value="重新查询数据" style="rounded=1;whiteSpace=wrap;html=1;strokeWidth=2;fillWeight=4;hachureGap=8;hachureAngle=45;fillColor=#99FF99;sketch=1;fontSize=18;fontStyle=1" parent="1" vertex="1">
          <mxGeometry x="171" y="1570" width="120" height="60" as="geometry" />
        </mxCell>
        <mxCell id="qImx0FthztkAbKvZ3IyT-57" value="恢复成功" style="whiteSpace=wrap;html=1;rounded=1;fontSize=18;strokeWidth=2;fillColor=#00FF00;sketch=1;fillWeight=4;hachureGap=8;hachureAngle=45;fontStyle=1" parent="1" vertex="1">
          <mxGeometry x="536" y="1570" width="120" height="60" as="geometry" />
        </mxCell>
        <mxCell id="qImx0FthztkAbKvZ3IyT-59" value="返回页面" style="text;html=1;align=center;verticalAlign=middle;resizable=0;points=[];autosize=1;strokeColor=none;fillColor=none;fontSize=18;" parent="1" vertex="1">
          <mxGeometry x="356" y="1570" width="90" height="30" as="geometry" />
        </mxCell>
      </root>
    </mxGraphModel>
  </diagram>
</mxfile>
